<?xml version="1.0" encoding="UTF-8" standalone="no" ?>
<!DOCTYPE svg PUBLIC "-//W3C//DTD SVG 1.1//EN" "http://www.w3.org/Graphics/SVG/1.1/DTD/svg11.dtd">
<svg xmlns="http://www.w3.org/2000/svg" xmlns:xlink="http://www.w3.org/1999/xlink" version="1.1" width="1280" height="1024" viewBox="0 0 1280 1024" xml:space="preserve">
<desc>Created with Fabric.js 5.3.0</desc>
<defs>
</defs>
<g transform="matrix(1 0 0 1 640 512)" id="background-logo"  >
<rect style="stroke: none; stroke-width: 0; stroke-dasharray: none; stroke-linecap: butt; stroke-dashoffset: 0; stroke-linejoin: miter; stroke-miterlimit: 4; fill: rgb(255,255,255); fill-opacity: 0; fill-rule: nonzero; opacity: 1;"  paint-order="stroke"  x="-640" y="-512" rx="0" ry="0" width="1280" height="1024" />
</g>
<g transform="matrix(1.9211538461538462 0 0 1.9211538461538462 640 397.50934059399253)" id="logo-logo"  >
<g style=""  paint-order="stroke"   >
		<g transform="matrix(0.8689717065074258 0 0 0.8689717065074258 0 0)"  >
<g style=""  paint-order="stroke"   >
		<g transform="matrix(1 0 0 1 0 0)"  >
<path style="stroke: none; stroke-width: 1; stroke-dasharray: none; stroke-linecap: butt; stroke-dashoffset: 0; stroke-linejoin: miter; stroke-miterlimit: 4; fill: rgb(195,149,94); fill-rule: nonzero; opacity: 1;"  paint-order="stroke"  transform=" translate(-97.5, -100)" d="M 191.16 0 L 0 0 L 0 116.68 C 0.7824232212990202 131.303185933056 5.113856792105721 145.51591684962534 12.620000000000019 158.09000000000003 C 19.70663682267041 170.01982005030013 29.785835356704048 179.89219508500338 41.860000000000035 186.73000000000005 C 57 195.34 75.66 199.81 97.47 200 L 97.53 200 C 119.34 199.81 138.05 195.34 153.14 186.73 C 165.21416464329596 179.89219508500335 175.29336317732964 170.01982005030007 182.38000000000002 158.08999999999995 C 189.8772986724631 145.53021516972555 194.20836318557747 131.33585476858374 195 116.73000000000002 L 195 0 Z M 191.16 116.68 C 191.16 116.68 190.16 195.33 97.5 196.15 C 4.810000000000002 195.33 3.8400000000000034 116.68 3.8400000000000034 116.68 L 3.8400000000000034 3.85 L 191.16 3.85 Z" stroke-linecap="round" />
</g>
		<g transform="matrix(1 0 0 1 -0.009999999999990905 0)"  >
<path style="stroke: none; stroke-width: 1; stroke-dasharray: none; stroke-linecap: butt; stroke-dashoffset: 0; stroke-linejoin: miter; stroke-miterlimit: 4; fill: rgb(195,149,94); fill-rule: nonzero; opacity: 1;"  paint-order="stroke"  transform=" translate(-97.49000000000001, -100)" d="M 97.49 190.66 L 97.49 190.66 C 183.38 189.87 185.62 119.66 185.67000000000002 116.66 L 185.67000000000002 9.34 L 9.31 9.34 L 9.31 116.6 C 9.36 119.6 11.57 189.87 97.49 190.66 Z" stroke-linecap="round" />
</g>
</g>
</g>
</g>
</g>
<g transform="matrix(1.9211538461538462 0 0 1.9211538461538462 640.4898942307692 654.6046859838941)" id="text-logo"  >
<g style=""  paint-order="stroke"   >
		<g transform="matrix(1 0 0 1 0 0)" id="text-logo-path-0"  >
<path style="stroke: none; stroke-width: 0.6382978723404251; stroke-dasharray: none; stroke-linecap: butt; stroke-dashoffset: 0; stroke-linejoin: miter; stroke-miterlimit: 4; fill: rgb(195,149,94); fill-rule: nonzero; opacity: 1;"  paint-order="stroke"  transform=" translate(-176.42999999999998, 21)" d="M 1.98 0 L 13.38 0 L 13.38 -0.9 L 10.38 -0.9 L 10.38 -22.2 L 13.92 -22.2 C 16.5 -22.2 19.08 -21.54 19.08 -18.66 L 19.08 -17.4 L 19.98 -17.4 L 19.98 -27.9 L 19.08 -27.9 L 19.08 -26.64 C 19.08 -23.76 16.5 -23.1 13.92 -23.1 L 10.38 -23.1 L 10.38 -41.1 L 16.92 -41.1 C 19.5 -41.1 22.08 -40.14 22.08 -35.82 L 22.08 -33.9 L 22.98 -33.9 L 22.98 -42 L 1.98 -42 L 1.98 -41.1 L 4.98 -41.1 L 4.98 -0.9 L 1.98 -0.9 Z M 44.64 0 L 63.84 0 L 63.84 -8.1 L 62.94 -8.1 L 62.94 -6.24 C 62.94 -1.92 60.36 -0.9 57.78 -0.9 L 53.04 -0.9 L 53.04 -41.1 L 56.04 -41.1 L 56.04 -42 L 44.64 -42 L 44.64 -41.1 L 47.64 -41.1 L 47.64 -0.9 L 44.64 -0.9 Z M 88.5 -0.9 L 85.5 -0.9 L 85.5 0 L 96.9 0 L 96.9 -0.9 L 93.9 -0.9 L 93.9 -41.1 L 96.9 -41.1 L 96.9 -42 L 85.5 -42 L 85.5 -41.1 L 88.5 -41.1 Z M 135 -36.84 L 135.9 -36.84 L 135.9 -42 L 135 -42 L 135 -41.52 C 135 -40.74 134.82 -40.14 134.46 -39.66 C 133.14 -41.52 131.22 -42.6 129.12 -42.6 C 121.14 -42.6 118.56 -35.4 118.56 -21 C 118.56 -6.84 120.72 0.6 129.12 0.6 C 131.82 0.6 133.62 -0.72 134.94 -3.3 C 135.3 -2.82 135.48 -2.22 135.48 -1.44 L 135.48 0 L 136.38 0 L 136.38 -7.2 L 135.48 -7.2 C 134.1 -2.04 131.76 -0.3 129.06 -0.3 C 126.36 -0.3 124.56 -2.46 124.56 -7.2 L 124.56 -34.8 C 124.56 -39.3 126.36 -41.7 129.06 -41.7 C 131.34 -41.7 133.68 -40.14 135 -36.84 Z M 161.04 -0.9 L 158.04 -0.9 L 158.04 0 L 169.44 0 L 169.44 -0.9 L 166.44 -0.9 L 166.44 -18.36 L 166.98 -19.44 L 174.78 -0.9 L 172.14 -0.9 L 172.14 0 L 183.84 0 L 183.84 -0.9 L 180.48 -0.9 L 170.1 -25.62 L 177.96 -41.1 L 181.44 -41.1 L 181.44 -42 L 174.54 -42 L 174.54 -41.1 L 177.06 -41.1 L 166.44 -20.16 L 166.44 -41.1 L 169.44 -41.1 L 169.44 -42 L 158.04 -42 L 158.04 -41.1 L 161.04 -41.1 Z M 205.5 -23.52 L 205.5 -20.82 L 218.1 -20.82 L 218.1 -23.52 Z M 239.76 0 L 250.32 0 C 258.18 0 260.76 -3.96 260.76 -11.4 C 260.76 -17.46 259.38 -21.24 254.22 -22.44 C 258.54 -23.58 260.16 -26.88 260.16 -31.98 C 260.16 -38.28 258.18 -41.82 250.32 -42 L 249.72 -42 L 239.76 -42 L 239.76 -41.1 L 242.76 -41.1 L 242.76 -0.9 L 239.76 -0.9 Z M 248.16 -22.8 L 248.16 -41.1 L 249.66 -41.1 C 252.36 -41.1 254.16 -39.06 254.16 -35.7 L 254.16 -28.2 C 254.16 -24.96 252.36 -22.8 249.66 -22.8 Z M 248.16 -0.9 L 248.16 -21.9 L 250.26 -21.9 C 252.96 -21.9 254.76 -19.56 254.76 -15.9 L 254.76 -6.9 C 254.76 -3.36 252.96 -0.9 250.26 -0.9 Z M 292.92 -19.8 L 292.92 -0.9 L 289.92 -0.9 L 289.92 0 L 301.32 0 L 301.32 -0.9 L 298.32 -0.9 L 298.32 -19.8 L 304.92 -41.1 L 308.22 -41.1 L 308.22 -42 L 301.02 -42 L 301.02 -41.1 L 303.72 -41.1 L 297.72 -21.66 L 291.12 -41.1 L 293.82 -41.1 L 293.82 -42 L 282.42 -42 L 282.42 -41.1 L 285.72 -41.1 Z M 329.88 0 L 350.88 0 L 350.88 -8.1 L 349.98 -8.1 L 349.98 -6.24 C 349.98 -1.92 347.4 -0.9 344.82 -0.9 L 338.28 -0.9 L 338.28 -22.2 L 341.82 -22.2 C 344.4 -22.2 346.98 -21.54 346.98 -18.66 L 346.98 -17.4 L 347.88 -17.4 L 347.88 -27.9 L 346.98 -27.9 L 346.98 -26.64 C 346.98 -23.76 344.4 -23.1 341.82 -23.1 L 338.28 -23.1 L 338.28 -41.1 L 344.82 -41.1 C 347.4 -41.1 349.98 -40.14 349.98 -35.82 L 349.98 -33.9 L 350.88 -33.9 L 350.88 -42 L 329.88 -42 L 329.88 -41.1 L 332.88 -41.1 L 332.88 -0.9 L 329.88 -0.9 Z" stroke-linecap="round" />
</g>
</g>
</g>
<g transform="matrix(1.9211538461538462 0 0 1.9211538461538462 640.0768461538461 391.99793444014637)" id="tagline-2513b1fb-f6b7-48e0-8937-7bfef33c5a67-logo"  >
<g style=""  paint-order="stroke"   >
		<g transform="matrix(1 0 0 1 0 0)" id="tagline-2513b1fb-f6b7-48e0-8937-7bfef33c5a67-logo-path-0"  >
<filter id="SVGID_105691" y="-20%" height="140%" x="-31.827209701847323%" width="163.65441940369465%" >
	<feGaussianBlur in="SourceAlpha" stdDeviation="0"></feGaussianBlur>
	<feOffset dx="3.311618716517251" dy="0" result="oBlur" ></feOffset>
	<feFlood flood-color="rgb(142,108,67)" flood-opacity="1"/>
	<feComposite in2="oBlur" operator="in" />
	<feMerge>
		<feMergeNode></feMergeNode>
		<feMergeNode in="SourceGraphic"></feMergeNode>
	</feMerge>
</filter>
<path style="stroke: none; stroke-width: 0; stroke-dasharray: none; stroke-linecap: butt; stroke-dashoffset: 0; stroke-linejoin: miter; stroke-miterlimit: 4; fill: rgb(255,255,255); fill-rule: nonzero; opacity: 1;filter: url(#SVGID_105691);"  paint-order="stroke"  transform=" translate(-16.64, 28)" d="M 2.64 0 L 17.84 0 L 17.84 -1.2 L 13.84 -1.2 L 13.84 -29.6 L 18.56 -29.6 C 22 -29.6 25.44 -28.72 25.44 -24.88 L 25.44 -23.2 L 26.64 -23.2 L 26.64 -37.2 L 25.44 -37.2 L 25.44 -35.52 C 25.44 -31.68 22 -30.8 18.56 -30.8 L 13.84 -30.8 L 13.84 -54.8 L 22.56 -54.8 C 26 -54.8 29.44 -53.52 29.44 -47.76 L 29.44 -45.2 L 30.64 -45.2 L 30.64 -56 L 2.64 -56 L 2.64 -54.8 L 6.64 -54.8 L 6.64 -1.2 L 2.64 -1.2 Z" stroke-linecap="round" />
</g>
</g>
</g>
<g transform="matrix(1.9211538461538462 0 0 1.9211538461538462 639.7925153846153 751.8770910215687)" id="tagline-3681ef9c-9866-406c-89f9-d214b2cbfaa1-logo"  >
<g style=""  paint-order="stroke"   >
		<g transform="matrix(1 0 0 1 5.684342e-14 0)" id="tagline-3681ef9c-9866-406c-89f9-d214b2cbfaa1-logo-path-0"  >
<path style="stroke: none; stroke-width: 0; stroke-dasharray: none; stroke-linecap: butt; stroke-dashoffset: 0; stroke-linejoin: miter; stroke-miterlimit: 4; fill: rgb(195,149,94); fill-rule: nonzero; opacity: 1;"  paint-order="stroke"  transform=" translate(-175.355, 12.6)" d="M 9 0.36 C 12.38 0.36 15.12 -0.58 15.12 -5.4 L 15.12 -6.12 C 15.12 -11.92 5.4 -15.62 5.4 -19.08 C 5.4 -22.36 6.8 -23.04 9 -23.04 C 11.2 -23.04 12.6 -22.36 12.6 -19.08 L 12.6 -17.64 L 15.12 -17.64 L 15.12 -19.8 C 15.12 -24.62 12.42 -25.56 9 -25.56 C 5.62 -25.56 2.88 -24.62 2.88 -19.8 L 2.88 -19.08 C 2.88 -13.9 12.6 -10.19 12.6 -6.12 C 12.6 -2.84 11.2 -2.16 9 -2.16 C 6.8 -2.16 5.4 -2.84 5.4 -6.12 L 5.4 -7.99 L 2.88 -7.99 L 2.88 -5.4 C 2.88 -0.65 5.58 0.36 9 0.36 Z M 47.05 -25.2 L 41.29 -25.2 L 41.29 -23.04 L 42.91 -23.04 L 42.91 -2.16 L 41.29 -2.16 L 41.29 0 L 47.05 0 L 47.05 -2.16 L 45.43 -2.16 L 45.43 -23.04 L 47.05 -23.04 Z M 73.94 -25.2 L 73.94 0 L 76.46 0 L 76.46 -19.08 L 84.31 0 L 86.83 0 L 86.83 -25.2 L 84.31 -25.2 L 84.31 -6.12 L 76.46 -25.2 Z M 123.98 -19.08 L 123.98 -15.48 L 126.5 -15.48 L 126.5 -19.8 C 126.5 -24.62 123.8 -25.56 120.38 -25.56 C 117 -25.56 114.26 -24.62 114.26 -19.8 L 114.26 -5.4 C 114.26 -0.58 117 0.36 120.38 0.36 C 123.8 0.36 126.5 -0.65 126.5 -5.4 L 126.5 -6.91 L 123.98 -6.91 L 123.98 -6.12 C 123.98 -2.84 122.58 -2.16 120.38 -2.16 C 118.19 -2.16 116.78 -2.84 116.78 -6.12 L 116.78 -19.08 C 116.78 -22.36 118.19 -23.04 120.38 -23.04 C 122.58 -23.04 123.98 -22.36 123.98 -19.08 Z M 153.58 -25.2 L 153.58 0 L 164.38 0 L 164.38 -2.16 L 156.1 -2.16 L 156.1 -11.52 L 162.22 -11.52 L 162.22 -13.68 L 156.1 -13.68 L 156.1 -23.04 L 164.02 -23.04 L 164.02 -25.2 Z M 230.4 -2.16 L 221.22 -2.16 L 228.92 -13.03 C 230 -14.58 230.4 -15.91 230.4 -17.75 L 230.4 -18 C 230.4 -22.82 228.06 -23.76 224.64 -23.76 C 221.22 -23.76 218.52 -22.82 218.52 -18 L 218.52 -17.1 L 221.04 -17.1 L 221.04 -17.64 C 221.04 -20.92 222.44 -21.6 224.64 -21.6 C 226.84 -21.6 227.88 -20.92 227.88 -17.64 L 227.88 -17.5 C 227.88 -16.34 227.59 -15.55 226.94 -14.62 L 218.16 -2.16 L 218.16 0 L 230.4 0 Z M 257.18 -18 L 257.18 -5.4 C 257.18 -0.58 259.92 0.36 263.3 0.36 C 266.72 0.36 269.42 -0.65 269.42 -5.4 L 269.42 -18 C 269.42 -22.82 266.72 -23.76 263.3 -23.76 C 259.92 -23.76 257.18 -22.82 257.18 -18 Z M 259.7 -6.12 L 259.7 -17.28 C 259.7 -20.56 261.11 -21.24 263.3 -21.24 C 265.5 -21.24 266.9 -20.56 266.9 -17.28 L 266.9 -6.12 C 266.9 -2.84 265.5 -2.16 263.3 -2.16 C 261.11 -2.16 259.7 -2.84 259.7 -6.12 Z M 308.74 -2.16 L 299.56 -2.16 L 307.26 -13.03 C 308.34 -14.58 308.74 -15.91 308.74 -17.75 L 308.74 -18 C 308.74 -22.82 306.4 -23.76 302.98 -23.76 C 299.56 -23.76 296.86 -22.82 296.86 -18 L 296.86 -17.1 L 299.38 -17.1 L 299.38 -17.64 C 299.38 -20.92 300.78 -21.6 302.98 -21.6 C 305.17 -21.6 306.22 -20.92 306.22 -17.64 L 306.22 -17.5 C 306.22 -16.34 305.93 -15.55 305.28 -14.62 L 296.5 -2.16 L 296.5 0 L 308.74 0 Z M 341.71 0.36 C 345.13 0.36 347.83 -0.65 347.83 -5.4 L 347.83 -7.56 C 347.83 -10.33 346.93 -11.56 345.49 -12.13 C 346.72 -12.78 347.47 -14.04 347.47 -16.56 L 347.47 -18 C 347.47 -22.82 345.13 -23.76 341.71 -23.76 C 338.29 -23.76 335.59 -22.82 335.59 -18 L 335.59 -17.1 L 338.11 -17.1 L 338.11 -17.64 C 338.11 -20.92 339.52 -21.6 341.71 -21.6 C 343.91 -21.6 344.95 -20.92 344.95 -17.64 L 344.95 -16.92 C 344.95 -13.64 343.55 -12.96 341.35 -12.96 L 338.83 -12.96 L 338.83 -11.16 L 341.71 -11.16 C 343.91 -11.16 345.31 -10.48 345.31 -6.84 L 345.31 -5.76 C 345.31 -2.48 343.91 -1.8 341.71 -1.8 C 339.52 -1.8 338.11 -2.48 338.11 -5.76 L 338.11 -7.38 L 335.59 -7.38 L 335.59 -5.4 C 335.59 -0.65 338.29 0.36 341.71 0.36 Z" stroke-linecap="round" />
</g>
</g>
</g>
</svg>